<svg xmlns="http://www.w3.org/2000/svg" viewbox="0 0 122 166" fill="none"><path d="M7.443 143.559c-5.9328 0-7.443-3.973-7.443-7.624 0-5.154 2.8046-8.59 8.0902-8.59 1.0787 0 2.2652.108 3.2361.43l-.4315 3.328c-.863-.214-1.9417-.429-2.9125-.429-2.5888 0-3.9911 1.825-3.9911 4.724 0 3.114 1.2944 4.832 4.2069 4.832.863 0 2.0495-.215 2.8046-.537l.4314 3.222c-1.1865.429-2.5888.644-3.9911.644zM19.5243 143.666c-4.962 0-7.3351-3.114-7.3351-8.053 0-5.154 3.5597-8.482 7.8745-8.482 4.2069 0 7.3351 2.469 7.3351 8.053.1078 5.261-3.4519 8.482-7.8745 8.482zm.3236-13.207c-1.9416 0-3.7754 1.503-3.7754 4.832 0 3.114 1.1866 4.939 3.6675 4.939 1.726 0 3.7755-1.288 3.7755-4.939 0-3.114-1.2945-4.832-3.6676-4.832zM38.1857 143.344l-3.7755-6.872c-.6472-1.181-1.1865-2.469-1.618-3.436.1079 1.181.1079 2.792.1079 4.295v6.013h-3.5597v-15.891h4.7462l3.4518 6.335c.7551 1.288 1.4023 2.684 1.9417 3.865-.1079-1.396-.2157-3.436-.2157-4.939v-5.261h3.5596v15.891h-4.6383zM54.366 143.344l-3.7754-6.872c-.6472-1.181-1.1866-2.469-1.618-3.436.1078 1.181.1078 2.792.1078 4.295v6.013h-3.5596v-15.891h4.7462l3.4518 6.335c.7551 1.288 1.4023 2.684 1.9416 3.865-.1078-1.396-.2157-3.436-.2157-4.939v-5.261h3.5597v15.891H54.366zM61.7012 143.344v-15.891h8.9531v3.114h-5.2856v3.113h4.962v3.007h-4.962v3.543h5.2856v3.114h-8.9531zM79.6074 143.559c-5.9328 0-7.443-3.973-7.443-7.624 0-5.154 2.8046-8.59 8.0902-8.59 1.0787 0 2.2653.108 3.2361.43l-.4315 3.328c-.8629-.214-1.9416-.429-2.9124-.429-2.5889 0-3.9912 1.825-3.9912 4.724 0 3.114 1.2944 4.832 4.2069 4.832.8629 0 2.0495-.215 2.8046-.537l.4315 3.222c-1.1866.429-2.5889.644-3.9912.644zM92.1202 130.567v12.777h-3.6675v-12.777h-3.8833v-3.114h11.3263v3.114h-3.7755zM97.1901 143.344v-15.891h8.9529v3.114h-5.285v3.113h4.962v3.007h-4.962v3.543h5.285v3.114h-8.9529zM113.263 143.451c-1.726 0-3.236-.107-4.747-.107V127.56c1.295-.107 3.236-.107 5.394-.107 4.854 0 7.982 2.04 7.982 7.731.108 5.368-3.452 8.267-8.629 8.267zm.539-12.992h-1.51v9.771c.323 0 .755.108 1.402.108 2.481 0 4.423-1.504 4.423-4.94-.108-3.006-1.079-4.939-4.315-4.939zM11.0027 165.785v-6.979H2.5889v6.979H1.1866v-14.603h1.4023v6.443h8.4138v-6.443h1.4023v14.603h-1.4023zM15.3174 165.785v-14.603h7.2273v1.074h-5.825v5.369h5.5014v1.074h-5.5014v5.798h5.825v1.181h-7.2273v.107zM34.7339 165.785l-1.2944-3.65h-6.7958l-1.4023 3.758h-1.4023l5.5013-14.603h1.5102l5.5013 14.603h-1.618v-.108zm-4.099-10.952c-.3236-.752-.4315-1.396-.6472-2.147-.2158.644-.4315 1.395-.6473 2.04l-2.2652 6.227h5.9328l-2.3731-6.12zM37.7542 165.785v-14.603h1.4023v13.422h5.6092v1.181h-7.0115zM48.7569 152.363v13.422h-1.2944v-13.422h-4.5306v-1.181h10.4634v1.181h-4.6384zM64.6137 165.785v-6.979h-8.4139v6.979h-1.4023v-14.603h1.4023v6.443h8.4139v-6.443h1.4022v14.603h-1.4022zM79.3917 166c-4.4227 0-6.5801-2.684-6.5801-7.194 0-4.295 2.0496-7.731 7.0115-7.731 1.1866 0 2.3732.215 3.4519.43l-.1079 1.288c-1.2944-.429-2.3731-.537-3.5597-.537-3.7754 0-5.2856 2.899-5.2856 6.335 0 3.866 1.7259 6.12 5.5013 6.12 1.1866 0 2.6968-.322 3.5597-.858l.1079 1.181c-1.1866.644-2.5889.966-4.099.966zM85.3245 165.785v-14.603h1.4023v14.603h-1.4023zM94.0619 152.363v13.422h-1.4023v-13.422h-4.5305v-1.181h10.4633v1.181h-4.5305zM99.9947 165.785v-14.603h1.4023v14.603h-1.4023zM104.309 165.785v-14.603h7.228v1.074h-5.825v5.369h5.501v1.074h-5.501v5.798h5.825v1.181h-7.228v.107zM116.283 166c-1.079 0-2.157-.107-2.913-.322l.108-1.396c.863.322 1.942.537 3.021.537 1.941 0 3.667-.752 3.667-2.899 0-3.651-6.903-2.362-6.903-6.872 0-2.255 1.833-3.973 4.962-3.973.97 0 1.725.107 2.588.215l-.107 1.288c-.863-.214-1.726-.429-2.697-.429-2.265 0-3.452 1.073-3.452 2.684 0 3.543 7.012 2.255 7.012 6.765 0 2.577-2.05 4.402-5.286 4.402z" fill="#3F2B4E"/><path d="M61.0011.0248L36.0283 24.8033 60.946 49.7141 85.9428 24.852z" fill="#ea4c84"/><path d="M25.6162 35.1969L.6745 60.024l24.9984 24.8013L50.6985 60.022z" fill="#00a2ad"/><path d="M50.6985 60.022l10.2476-10.3079-24.9178-24.9108v20.7174z" fill="#e83274"/><path d="M25.6728 84.8253L.7551 109.736V60.022l24.9177 24.8033z" fill="#00928D"/><path d="M96.2592 35.1713L71.3015 60.022l25.0257 24.8033L121.245 60.022z" fill="#1d71b8"/><path d="M85.9717 24.8033L60.946 49.7141 71.3015 60.022l14.6702-14.6029V24.8033z" fill="#D6306A"/><path d="M96.3271 84.8253L121.245 60.022v49.714L96.3271 84.8253z" fill="#184E96"/><path d="M60.9461 70.3299L36.0283 95.1332 60.946 120.044l25.0257-24.9108z" fill="#ad2b51"/><path d="M50.6985 80.6378V60.022L25.6729 84.8253l10.3554 10.3079z" fill="#008883"/><path d="M85.9717 95.1332l10.3555-10.3079L71.3015 60.022v20.6158z" fill="#1954a2"/><path d="M60.9461 70.3299l10.3554 10.3079V60.022L60.9461 49.7141 50.6985 60.022v20.6158l10.2476-10.3079z" fill="#3F2B4E"/><path d="M60.9461 120.044H36.0283V95.1332z" fill="#8f1f3a"/><path d="M60.946 120.044l25.0257-24.9108v24.9108z" fill="#811c34"/><path d="M96.3271 84.8253L85.9717 95.1332v24.9108h35.2733v-10.308L96.3271 84.8253zM25.6728 84.8253l10.3555 10.3079v24.9108H.7551v-10.308l24.9177-24.9107z" fill="#3F2B4E"/></svg>