<svg width="204" height="65" fill="none" xmlns="http://www.w3.org/2000/svg"><path d="M86.883 22.708l.098.098c1.957-4.598 5.968-7.631 11.643-7.631 7.632 0 9.98 4.696 9.98 10.664v23.189h-5.871V27.503c0-4.697-1.271-7.436-5.674-7.436-5.48 0-9.393 5.577-9.393 12.915V48.93h-5.968V20.36c-1.566-.293-3.914-.489-5.773-.685v-3.522c3.326-.391 7.925-.685 11.643-.49-.098 2.055-.293 5.088-.685 7.045zM109.289 4.217V.597c3.327-.392 7.925-.685 11.839-.49v15.655c0 2.152-.098 4.892-.489 6.653l.098.098c1.956-4.5 6.066-7.436 11.643-7.436 7.534 0 9.98 4.696 9.98 10.665v23.286h-5.969V27.503c0-4.697-1.272-7.436-5.577-7.436-5.479 0-9.49 5.577-9.49 12.915V48.93h-5.969V4.901c-1.859-.293-4.109-.587-6.066-.684zM155.079 49.517c-2.446 0-4.99-.196-7.045-.587l.196-5.381a23.879 23.879 0 007.24 1.174c4.403 0 7.436-1.957 7.436-5.088 0-7.436-15.459-2.837-15.459-14.578 0-5.577 4.599-9.98 13.307-9.98 1.957 0 4.305.293 6.359.685l-.097 4.99c-2.055-.685-4.501-1.077-6.654-1.077-4.402 0-6.653 1.86-6.653 4.697 0 7.24 15.459 3.326 15.459 14.48.098 6.164-5.185 10.665-14.089 10.665zM192.357 48.93c0-2.348 0-4.697.293-6.653h-.098c-1.565 4.11-5.772 7.24-11.251 7.24-5.479 0-9.197-2.935-9.197-8.219 0-7.24 7.436-11.839 19.959-11.839v-2.446c0-4.598-1.761-7.044-7.24-7.044-3.131 0-7.142.978-9.98 2.74l-.587-5.186c3.229-1.37 7.24-2.446 11.643-2.446 9.589 0 12.328 4.5 12.328 11.056v18.1c1.566.294 3.914.49 5.773.685v3.523c-3.522.391-8.121.685-11.643.489zm-.392-15.263c-11.545 0-14.089 3.522-14.089 6.555 0 2.837 1.957 4.599 5.088 4.599 5.381 0 9.001-5.382 9.001-10.567v-.587zM85.318 60.28l-2.74-4.207c-.293-.391-.489-.782-.685-1.174 0 .685.098 2.544.098 3.718v1.664h-.489v-5.773h.685l2.642 4.11c.293.39.489.782.684 1.173 0-.88-.097-2.641-.097-3.816v-1.467h.489v5.773h-.587zM89.035 60.378c-1.076 0-1.86-.685-1.86-2.153 0-1.174.686-2.152 1.958-2.152.978 0 1.859.489 1.859 2.152 0 1.076-.685 2.153-1.957 2.153zm.098-4.012c-.783 0-1.468.587-1.468 1.761s.49 1.86 1.468 1.86c.684 0 1.37-.588 1.37-1.86.097-1.076-.392-1.76-1.37-1.76zM92.85 57.246c.197-.684.588-1.37 1.566-1.174v.49c-.978-.196-1.467.684-1.467 2.152v1.663h-.49v-3.913c-.195 0-.489-.098-.782-.098v-.196c.293 0 .88-.098 1.174-.098.098.294 0 .783 0 1.174zM96.863 60.378c-.782 0-1.076-.392-1.076-1.272v-2.74h-.978v-.391h.978v-1.468l.49-.098v1.566h1.369v.391h-1.37v2.446c0 .88.098 1.077.685 1.077.196 0 .49 0 .685-.098v.391c-.293.098-.587.196-.783.196zM98.135 54.312v-.196c.293 0 .88-.097 1.174-.097v2.152c0 .294 0 .587-.098.88.294-.684.783-1.076 1.565-1.076.979 0 1.272.587 1.272 1.37v2.935h-.489v-2.74c0-.782-.195-1.173-.88-1.173-.88 0-1.468.783-1.468 1.957v2.054h-.391v-5.87c-.196-.098-.49-.098-.685-.196zM106.745 57.931h-2.935c-.098 1.468.489 2.055 1.467 2.055.49 0 .979-.098 1.272-.293v.391c-.391.196-.782.293-1.37.293-1.271 0-1.956-.684-1.956-2.152 0-1.272.685-2.25 1.859-2.25s1.565.782 1.565 1.663c.196.098.196.196.098.293zm-1.566-1.565c-.684 0-1.174.49-1.271 1.174h2.348c.098-.685-.392-1.174-1.077-1.174zM108.605 57.246c.195-.684.587-1.37 1.565-1.174v.49c-.978-.196-1.467.684-1.467 2.152v1.663h-.49v-3.913c-.195 0-.489-.098-.782-.098v-.196c.293 0 .88-.098 1.174-.098.098.294.098.783 0 1.174zM111.832 57.05c.294-.684.783-1.075 1.566-1.075.978 0 1.272.587 1.272 1.37v2.935h-.489v-2.74c0-.783-.196-1.174-.881-1.174-.88 0-1.468.783-1.468 1.957v2.054h-.489v-3.913c-.195 0-.489-.098-.782-.098v-.196c.293 0 .88-.098 1.174-.098.195.294.195.685.097.979zM122.204 60.28v-2.837h-3.425v2.838h-.489v-5.773h.489v2.642h3.425v-2.642h.391v5.773h-.391zM127.292 57.931h-2.935c-.098 1.468.489 2.055 1.467 2.055.489 0 .979-.098 1.272-.293v.391c-.391.196-.783.293-1.37.293-1.272 0-1.956-.684-1.956-2.152 0-1.272.684-2.25 1.859-2.25 1.174 0 1.565.782 1.565 1.663.098.098.098.196.098.293zm-1.663-1.565c-.685 0-1.175.49-1.272 1.174h2.348c.098-.685-.294-1.174-1.076-1.174zM130.912 60.28c0-.391 0-.685.098-.979-.196.588-.783 1.077-1.565 1.077-.685 0-1.174-.294-1.174-.979 0-.88.88-1.467 2.641-1.467v-.392c0-.684-.293-1.174-1.076-1.174-.391 0-.978.098-1.272.392l-.098-.392c.392-.195.881-.293 1.468-.293 1.076 0 1.37.587 1.37 1.37v2.543c.195 0 .489.098.782.098v.196h-1.174zm0-2.055c-1.761 0-2.152.587-2.152.979 0 .391.293.685.782.685.783.097 1.37-.783 1.37-1.664zM133.652 60.28h-.489v-5.87c-.196 0-.49-.098-.783-.098v-.196c.293 0 .88-.097 1.174-.097v6.261h.098zM136.489 60.378c-.782 0-1.076-.392-1.076-1.272v-2.74h-.978v-.391h.978v-1.468l.489-.098v1.566h1.37v.391h-1.37v2.446c0 .88.098 1.077.685 1.077.196 0 .489 0 .685-.098v.391a1.844 1.844 0 01-.783.196zM137.762 54.312v-.196c.293 0 .88-.097 1.174-.097v2.152c0 .294 0 .587-.098.88.293-.684.783-1.076 1.565-1.076.979 0 1.272.587 1.272 1.37v2.935h-.489v-2.74c0-.782-.196-1.173-.88-1.173-.881 0-1.468.783-1.468 1.957v2.054h-.489v-5.87c0-.098-.294-.098-.587-.196zM146.273 60.378c-.391 0-.881-.098-1.174-.196v-.49c.293.099.783.197 1.174.197.783 0 1.468-.294 1.468-1.175 0-1.467-2.74-.978-2.74-2.74 0-.88.685-1.565 1.957-1.565.391 0 .685 0 1.076.098v.392a3.516 3.516 0 00-1.076-.196c-.881 0-1.37.391-1.37 1.076 0 1.468 2.74.979 2.74 2.74 0 1.174-.783 1.859-2.055 1.859zM151.068 60.377c-.881 0-1.761-.293-1.761-2.054 0-1.37.685-2.348 2.054-2.348.392 0 .685.097 1.077.195l-.098.392a3.52 3.52 0 00-1.077-.196c-.978 0-1.467.783-1.467 1.859 0 .978.293 1.761 1.37 1.761.391 0 .88-.098 1.174-.293v.391c-.294.098-.783.293-1.272.293zM154.101 60.28h-.489v-3.913c-.196 0-.489-.098-.783-.098v-.196c.294 0 .881-.098 1.174-.098v4.306h.098zm-.196-5.087c-.195 0-.293-.098-.293-.294 0-.196.196-.391.293-.391.098 0 .294.098.294.391 0 .098-.098.294-.294.294zM158.797 57.931h-2.936c-.097 1.468.49 2.055 1.468 2.055.489 0 .979-.098 1.272-.293v.391c-.391.196-.783.293-1.37.293-1.272 0-1.957-.684-1.957-2.152 0-1.272.685-2.25 1.859-2.25 1.175 0 1.566.782 1.566 1.663.098.098.098.196.098.293zm-1.664-1.565c-.684 0-1.174.49-1.272 1.174h2.349c.098-.685-.294-1.174-1.077-1.174zM160.657 57.05c.293-.684.782-1.075 1.565-1.075.979 0 1.272.587 1.272 1.37v2.935h-.489v-2.74c0-.783-.196-1.174-.881-1.174-.88 0-1.467.783-1.467 1.957v2.054h-.489v-3.913c-.196 0-.49-.098-.783-.098v-.196c.293 0 .88-.098 1.174-.098.196.294.196.685.098.979zM166.623 60.377c-.88 0-1.761-.293-1.761-2.054 0-1.37.685-2.348 2.055-2.348.391 0 .685.097 1.076.195l-.098.392a3.507 3.507 0 00-1.076-.196c-.978 0-1.467.783-1.467 1.859 0 .978.293 1.761 1.369 1.761.392 0 .881-.098 1.174-.293v.391c-.293.098-.782.293-1.272.293zM172.006 57.931h-2.936c-.097 1.468.49 2.055 1.468 2.055.489 0 .979-.098 1.272-.293v.391c-.391.196-.783.293-1.37.293-1.272 0-1.957-.684-1.957-2.152 0-1.272.685-2.25 1.859-2.25 1.175 0 1.566.782 1.566 1.663.098.098.098.196.098.293zm-1.664-1.565c-.684 0-1.174.49-1.272 1.174h2.349c.097-.685-.294-1.174-1.077-1.174zM178.757 60.28l-.587-1.467h-2.739l-.587 1.468h-.49l2.153-5.773h.489l2.153 5.773h-.392zm-1.565-4.5c-.098-.294-.196-.49-.294-.783-.097.294-.195.49-.293.783l-.979 2.642h2.446l-.88-2.642zM180.91 60.28h-.49v-5.87c-.195 0-.489-.098-.782-.098v-.196c.293 0 .88-.097 1.174-.097v6.261h.098zM183.16 60.28h-.49v-5.87c-.195 0-.489-.098-.782-.098v-.196c.293 0 .88-.097 1.174-.097v6.261h.098zM185.507 60.28h-.489v-3.913c-.196 0-.489-.098-.783-.098v-.196c.294 0 .881-.098 1.174-.098v4.306h.098zm-.293-5.087c-.196 0-.294-.098-.294-.294 0-.196.196-.391.294-.391.195 0 .293.098.293.391.098.098-.098.294-.293.294zM189.422 60.28c0-.391 0-.685.098-.979-.196.588-.783 1.077-1.566 1.077-.685 0-1.174-.294-1.174-.979 0-.88.881-1.467 2.642-1.467v-.392c0-.684-.294-1.174-1.076-1.174-.392 0-.979.098-1.272.392l-.098-.392c.391-.195.881-.293 1.468-.293 1.076 0 1.369.587 1.369 1.37v2.543c.196 0 .49.098.783.098v.196h-1.174zm0-2.055c-1.761 0-2.153.587-2.153.979 0 .391.294.685.783.685.783.097 1.37-.783 1.37-1.664zM192.259 57.05c.294-.684.783-1.075 1.566-1.075.978 0 1.272.587 1.272 1.37v2.935h-.49v-2.74c0-.783-.195-1.174-.88-1.174-.881 0-1.468.783-1.468 1.957v2.054h-.489v-3.913c-.196 0-.489-.098-.783-.098v-.196c.294 0 .881-.098 1.174-.098.196.294.098.685.098.979zM198.129 60.377c-.88 0-1.761-.293-1.761-2.054 0-1.37.685-2.348 2.055-2.348.391 0 .685.097 1.076.195l-.098.392a3.513 3.513 0 00-1.076-.196c-.978 0-1.468.783-1.468 1.859 0 .978.294 1.761 1.37 1.761.392 0 .881-.098 1.174-.293v.391a3.002 3.002 0 01-1.272.293zM203.609 57.931h-2.935c-.098 1.468.489 2.055 1.468 2.055.489 0 .978-.098 1.272-.293v.391c-.392.196-.783.293-1.37.293-1.272 0-1.957-.684-1.957-2.152 0-1.272.685-2.25 1.859-2.25s1.565.782 1.565 1.663c.098.098.098.196.098.293zm-1.663-1.565c-.685 0-1.174.49-1.272 1.174h2.348c.098-.685-.391-1.174-1.076-1.174z" fill="#fff"/><g opacity=".3"><path opacity=".7" d="M14.958 4.064L3.68 15.341l28.227 28.227 11.277-11.277L14.958 4.064z" fill="#fff"/><path opacity=".7" d="M31.878 21L20.602 32.277l28.226 28.227 11.277-11.277L31.88 21z" fill="#fff"/><path opacity=".7" d="M31.97 20.992L3.741 49.219 15.02 60.496l28.227-28.227L31.97 20.992z" fill="#fff"/><path opacity=".7" d="M48.907 4.07L20.68 32.299l11.277 11.277 28.226-28.227L48.907 4.07z" fill="#fff"/></g><path d="M39.92 24.273V.303H23.97v23.97H0v15.949h23.971v23.971H39.92V40.222h23.972V24.273H39.92z" fill="#fff"/><path d="M63.89 24.274H23.97v15.948h39.92V24.274z" fill="#919191"/><path d="M39.92 24.274H0v15.948h39.92V24.274z" fill="#919191"/><path d="M39.919.304H23.97v39.92h15.948V.303z" fill="#919191"/><path d="M39.919 24.274H23.97v39.92h15.948v-39.92z" fill="#919191"/><g opacity=".7"><path opacity=".7" d="M14.958 4.064L3.68 15.341l28.227 28.227 11.277-11.277L14.958 4.064z" fill="#fff"/><path opacity=".7" d="M31.878 21L20.602 32.277l28.226 28.227 11.277-11.277L31.88 21z" fill="#A9A9A9"/><path opacity=".7" d="M31.97 20.992L3.741 49.219 15.02 60.496l28.227-28.227L31.97 20.992z" fill="#FBFBFB"/><path opacity=".7" d="M48.907 4.07L20.68 32.299l11.277 11.277 28.226-28.227L48.907 4.07z" fill="#FFF5F5"/></g><path d="M39.919 24.274H23.97v15.948h15.948V24.274z" fill="#fff"/><path opacity=".4" d="M31.927 20.972L20.65 32.249l11.277 11.277 11.277-11.277-11.277-11.277z" fill="#fff"/></svg>