<svg width="46" height="66" fill="none" xmlns="http://www.w3.org/2000/svg"><path d="M4.27 51.247v4.413h5.928v2.8H4.27v4.665h6.683V66H.74V48.372h10.214v2.875H4.271zM25.966 66l-3.808-5.927L18.702 66h-3.985l5.549-8.877-5.624-8.726h4.06l3.808 5.901 3.43-5.901h3.985l-5.523 8.852L30.026 66h-4.06zm19.988-17.603v2.85h-4.69V66H37.73V51.247h-4.69v-2.85h12.912z" fill="#AD2B51"/><path d="M40.9 4.1L19.5 25.5" stroke="#AD2C52" stroke-width="3.5" stroke-miterlimit="10"/><path d="M44.5 18H41V4l-14-.1V.4l17.6.1-.1 17.5zM31.7 21.2v3.7h9.1v10.9l-36.1-.1V24.8h9.1v-3.7H1.1L1 39.2l43.4.2.1-18.2H31.7z" fill="#AD2C52"/></svg>