<svg width="47" height="76" fill="none" xmlns="http://www.w3.org/2000/svg"><g clip-path="url(#clip0)"><path d="M33.817 20.978v3.668h7.108v10.89H4.815v-10.89h7.107v-3.668H1.146V39.09h43.447V20.978H33.817zm3.095-9.285h-9.17V0h-9.859v11.693h-9.17l14.1 17.08 14.1-17.08z" fill="#AD2B51"/></g><path d="M5.17 59.368v6.608H1.614V48.17h6.481c2.102 0 3.682.504 4.742 1.513 1.076 1.009 1.614 2.379 1.614 4.11 0 1.699-.555 3.052-1.665 4.06-1.093 1.01-2.656 1.514-4.69 1.514H5.17zm2.547-2.85c2.085 0 3.127-.908 3.127-2.723 0-.892-.243-1.572-.731-2.043-.488-.471-1.286-.706-2.396-.706H5.17v5.472h2.547zm24.705.53c0 1.765-.37 3.32-1.11 4.666-.74 1.345-1.816 2.395-3.228 3.152-1.395.74-3.06 1.11-4.993 1.11h-6.33V48.17h6.33c1.933 0 3.598.37 4.993 1.11 1.412.722 2.488 1.756 3.228 3.101.74 1.329 1.11 2.884 1.11 4.666zm-9.634 5.75c1.917 0 3.396-.504 4.439-1.513 1.059-1.009 1.588-2.421 1.588-4.237 0-1.833-.53-3.253-1.588-4.262-1.043-1.009-2.522-1.513-4.439-1.513h-2.471v11.525h2.471zM46.13 48.171v2.824h-7.49v4.767h6.002v2.723H38.64v7.49h-3.556V48.172H46.13z" fill="#AD2B51"/><defs><clipPath id="clip0"><path fill="#fff" d="M1.146 0h43.446v39.205H1.146z"/></clipPath></defs></svg>