<svg width="64" height="64" fill="none" xmlns="http://www.w3.org/2000/svg"><path d="M32.1 64C49.718 64 64 49.718 64 32.1S49.718.2 32.1.2.2 14.482.2 32.1 14.482 64 32.1 64z" fill="#fff"/><path d="M45.8 26.9c-.1 3-2.2 7-6.2 12.2-4.1 5.4-7.7 8.1-10.5 8.1-1.8 0-3.3-1.6-4.5-4.9-.8-3-1.6-6-2.5-9-.9-3.3-1.9-4.9-2.9-4.9-.2 0-1 .5-2.4 1.4L15.4 28c1.5-1.3 3-2.6 4.5-4 2-1.7 3.5-2.6 4.5-2.7 2.4-.2 3.8 1.4 4.4 4.9.6 3.7 1 6.1 1.2 7 .7 3.1 1.4 4.7 2.3 4.7.6 0 1.6-1 2.9-3 1.3-2 2-3.6 2.1-4.6.2-1.7-.5-2.6-2.1-2.6-.7 0-1.5.2-2.3.5 1.5-4.9 4.4-7.3 8.6-7.2 3-.1 4.5 1.9 4.3 5.9z" fill="#1EB7EA"/></svg>