<svg width="64" height="64" fill="none" xmlns="http://www.w3.org/2000/svg"><path d="M31.9 64c17.618 0 31.9-14.282 31.9-31.9S49.518.2 31.9.2 0 14.482 0 32.1 14.282 64 31.9 64z" fill="#fff"/><path d="M26.9 47c12.9 0 20-10.7 20-20v-.9c1.4-1 2.6-2.2 3.5-3.6-1.3.6-2.6.9-4 1.1 1.4-.9 2.6-2.2 3.1-3.9-1.4.8-2.9 1.4-4.5 1.7-1.3-1.4-3.1-2.2-5.1-2.2-3.9 0-7 3.1-7 7 0 .6.1 1.1.2 1.6-5.8-.3-11-3.1-14.5-7.3-.6 1-1 2.2-1 3.5 0 2.4 1.2 4.6 3.1 5.8-1.2 0-2.2-.4-3.2-.9v.1c0 3.4 2.4 6.2 5.6 6.9-.6.2-1.2.2-1.8.2-.5 0-.9 0-1.3-.1.9 2.8 3.5 4.8 6.6 4.9-2.4 1.9-5.4 3-8.7 3-.6 0-1.1 0-1.7-.1 3.1 2.1 6.7 3.2 10.7 3.2z" fill="#409BD6"/></svg>