<svg width="95" height="129" fill="none" xmlns="http://www.w3.org/2000/svg"><path d="M5.8 111.27c-4.5 0-5.8-3.1-5.8-5.9 0-4 2.2-6.7 6.2-6.7.9 0 1.8.1 2.5.3l-.3 2.6c-.7-.2-1.5-.3-2.2-.3-2 0-3.1 1.4-3.1 3.7 0 2.4 1 3.8 3.2 3.8.6 0 1.6-.2 2.2-.4l.3 2.5c-.9.2-2 .4-3 .4zM15.1 111.37c-3.8 0-5.7-2.4-5.7-6.2 0-4 2.8-6.6 6.1-6.6 3.2 0 5.7 1.9 5.7 6.2 0 4-2.7 6.6-6.1 6.6zm.2-10.2c-1.5 0-2.9 1.2-2.9 3.7 0 2.4.9 3.9 2.8 3.9 1.4 0 2.9-1 2.9-3.8.1-2.5-.9-3.8-2.8-3.8zM29.5 111.07l-2.9-5.3c-.5-.9-.9-1.9-1.3-2.7.1.9.1 2.2.1 3.3v4.7h-2.7v-12.3h3.7l2.7 4.9c.5 1 1.1 2.1 1.5 3-.1-1.1-.1-2.7-.1-3.9v-4.1h2.7v12.3h-3.7v.1zM42 111.07l-2.9-5.3c-.5-.9-.9-1.9-1.3-2.7.1.9.1 2.2.1 3.3v4.7h-2.7v-12.3h3.7l2.7 4.9c.5 1 1.1 2.1 1.5 3-.1-1.1-.1-2.7-.1-3.9v-4.1h2.7v12.3H42v.1zM47.6 111.07v-12.3h6.9v2.4h-4.1v2.4h3.9v2.3h-3.9v2.7h4.1v2.4h-6.9v.1zM61.4 111.27c-4.5 0-5.8-3.1-5.8-5.9 0-4 2.2-6.7 6.2-6.7.9 0 1.8.1 2.5.3l-.3 2.6c-.7-.2-1.5-.3-2.2-.3-2 0-3.1 1.4-3.1 3.7 0 2.4 1 3.8 3.2 3.8.6 0 1.6-.2 2.2-.4l.3 2.5c-.8.2-1.9.4-3 .4zM71.1 101.17v9.9h-2.8v-9.9h-3v-2.4H74v2.4h-2.9zM75 111.07v-12.3h6.9v2.4h-4.1v2.4h3.9v2.3h-3.9v2.7h4.1v2.4H75v.1zM87.4 111.17c-1.3 0-2.5-.1-3.7-.1v-12.3c1-.1 2.5-.1 4.2-.1 3.7 0 6.2 1.6 6.2 6 0 4.2-2.7 6.5-6.7 6.5zm.4-10.1h-1.2v7.5c.2 0 .6.1 1.1.1 2 0 3.4-1.2 3.4-3.8 0-2.3-.8-3.8-3.3-3.8zM8.5 128.47v-5.4H2v5.4H.9v-11.3H2v5h6.5v-5h1.1v11.3H8.5zM11.8 128.47v-11.3h5.6v.9h-4.5v4.2h4.3v.9h-4.3v4.5h4.5v.9h-5.6v-.1zM26.8 128.47l-1-2.9h-5.2l-1.1 2.9h-1.1l4.2-11.3h1.2l4.2 11.3h-1.2zm-3.1-8.5c-.2-.6-.4-1.1-.5-1.6-.2.5-.3 1.1-.5 1.6l-1.8 4.8h4.6l-1.8-4.8zM29.1 128.47v-11.3h1.1v10.4h4.3v.9h-5.4zM37.7 118.07v10.4h-1.1v-10.4h-3.5v-.9h8.1v.9h-3.5zM49.8 128.47v-5.4h-6.5v5.4h-1.1v-11.3h1.1v5h6.5v-5h1.1v11.3h-1.1zM61.2 128.67c-3.4 0-5.1-2.1-5.1-5.5s1.6-6 5.4-6c.9 0 1.8.1 2.7.4l-.1 1c-1-.3-1.9-.5-2.8-.5-2.9 0-4 2.3-4 4.9 0 3 1.3 4.8 4.2 4.8.9 0 2-.3 2.8-.7l.1 1c-.9.3-2 .6-3.2.6zM65.8 128.47v-11.3h1.1v11.3h-1.1zM72.5 118.07v10.4h-1.1v-10.4H68v-.9h8v.9h-3.5zM77.2 128.47v-11.3h1.1v11.3h-1.1zM80.5 128.47v-11.3h5.6v.9h-4.5v4.2h4.3v.9h-4.3v4.5h4.5v.9h-5.6v-.1zM89.7 128.67c-.9 0-1.7-.1-2.3-.3l.1-1.1c.7.2 1.5.4 2.3.4 1.5 0 2.8-.6 2.8-2.3 0-2.8-5.4-1.8-5.4-5.3 0-1.8 1.4-3.1 3.8-3.1.7 0 1.4.1 2 .2l-.1 1c-.6-.2-1.4-.3-2-.3-1.7 0-2.7.8-2.7 2.1 0 2.7 5.4 1.7 5.4 5.3.2 2-1.4 3.4-3.9 3.4z" fill="#fff"/><path d="M46.972 0L27.74 19.233l19.233 19.233 19.233-19.233L46.972 0z" fill="#999"/><path d="M19.8 27.252L.565 46.485 19.8 65.72l19.233-19.234L19.8 27.252z" fill="#7A7A7A"/><path d="M39.1 46.47l8-8-19.3-19.2v15.9l11.3 11.3z" fill="#696969"/><path d="M19.8 65.77L.6 84.97v-38.5l19.2 19.3z" fill="#676767"/><path d="M74.295 27.244L55.062 46.477 74.295 65.71l19.233-19.233-19.233-19.233z" fill="#565656"/><path d="M66.3 19.27l-19.2 19.2 7.9 8 11.3-11.3v-15.9z" fill="#696969"/><path d="M74.3 65.77l19.3-19.3v38.5l-19.3-19.2z" fill="#3A3A3A"/><path d="M46.974 54.499L27.74 73.732l19.233 19.233 19.233-19.233-19.233-19.233z" fill="#494949"/><path d="M39.1 62.47v-16l-19.3 19.3 8 8 11.3-11.3z" fill="#676767"/><path d="M66.3 73.77l8-8L55 46.47v16l11.3 11.3z" fill="#3A3A3A"/><path d="M47.1 54.47l7.9 8v-16l-7.9-8-8 8v16l8-8z" fill="#242424"/><path d="M47.1 92.97H27.8v-19.2l19.3 19.2zM47.1 92.97l19.2-19.2v19.2H47.1z" fill="#323232"/><path d="M74.3 65.77l-8 8v19.2h27.3v-8l-19.3-19.2zM19.8 65.77l8 8v19.2H.6v-8l19.2-19.2z" fill="#242424"/></svg>