<?xml version="1.0" encoding="UTF-8" standalone="no"?>
<svg
   xmlns:dc="http://purl.org/dc/elements/1.1/"
   xmlns:cc="http://creativecommons.org/ns#"
   xmlns:rdf="http://www.w3.org/1999/02/22-rdf-syntax-ns#"
   xmlns:svg="http://www.w3.org/2000/svg"
   xmlns="http://www.w3.org/2000/svg"
   xmlns:sodipodi="http://sodipodi.sourceforge.net/DTD/sodipodi-0.dtd"
   xmlns:inkscape="http://www.inkscape.org/namespaces/inkscape"
   width="122"
   height="166"
   viewBox="0 0 122 166"
   fill="none"
   version="1.1"
   id="svg967"
   sodipodi:docname="logo.svg"
   inkscape:version="0.92.4 (5da689c313, 2019-01-14)">
  <metadata
     id="metadata973">
    <rdf:RDF>
      <cc:Work
         rdf:about="">
        <dc:format>image/svg+xml</dc:format>
        <dc:type
           rdf:resource="http://purl.org/dc/dcmitype/StillImage" />
      </cc:Work>
    </rdf:RDF>
  </metadata>
  <defs
     id="defs971" />
  <sodipodi:namedview
     pagecolor="#ffffff"
     bordercolor="#666666"
     borderopacity="1"
     objecttolerance="10"
     gridtolerance="10"
     guidetolerance="10"
     inkscape:pageopacity="0"
     inkscape:pageshadow="2"
     inkscape:window-width="3840"
     inkscape:window-height="2035"
     id="namedview969"
     showgrid="false"
     inkscape:zoom="4"
     inkscape:cx="22.553586"
     inkscape:cy="214.17673"
     inkscape:window-x="3827"
     inkscape:window-y="-13"
     inkscape:window-maximized="1"
     inkscape:current-layer="svg967" />
  <path
     d="M7.44297 143.559C1.51017 143.559 0 139.586 0 135.935C0 130.781 2.8046 127.345 8.09019 127.345C9.16888 127.345 10.3554 127.453 11.3263 127.775L10.8948 131.103C10.0318 130.889 8.95314 130.674 7.98232 130.674C5.39346 130.674 3.99116 132.499 3.99116 135.398C3.99116 138.512 5.28559 140.23 8.19805 140.23C9.06101 140.23 10.2476 140.015 11.0027 139.693L11.4341 142.915C10.2476 143.344 8.84527 143.559 7.44297 143.559Z"
     fill="#3F2B4E"
     id="path895" />
  <path
     d="M19.5243 143.666C14.5623 143.666 12.1892 140.552 12.1892 135.613C12.1892 130.459 15.7489 127.131 20.0637 127.131C24.2706 127.131 27.3988 129.6 27.3988 135.184C27.5066 140.445 23.9469 143.666 19.5243 143.666ZM19.8479 130.459C17.9063 130.459 16.0725 131.962 16.0725 135.291C16.0725 138.405 17.2591 140.23 19.74 140.23C21.466 140.23 23.5155 138.942 23.5155 135.291C23.5155 132.177 22.221 130.459 19.8479 130.459Z"
     fill="#3F2B4E"
     id="path897" />
  <path
     d="M38.1857 143.344L34.4102 136.472C33.763 135.291 33.2237 134.003 32.7922 133.036C32.9001 134.217 32.9001 135.828 32.9001 137.331V143.344H29.3404V127.453H34.0866L37.5384 133.788C38.2935 135.076 38.9407 136.472 39.4801 137.653C39.3722 136.257 39.2644 134.217 39.2644 132.714V127.453H42.824V143.344H38.1857Z"
     fill="#3F2B4E"
     id="path899" />
  <path
     d="M54.366 143.344L50.5906 136.472C49.9434 135.291 49.404 134.003 48.9726 133.036C49.0804 134.217 49.0804 135.828 49.0804 137.331V143.344H45.5208V127.453H50.267L53.7188 133.788C54.4739 135.076 55.1211 136.472 55.6604 137.653C55.5526 136.257 55.4447 134.217 55.4447 132.714V127.453H59.0044V143.344H54.366Z"
     fill="#3F2B4E"
     id="path901" />
  <path
     d="M61.7012 143.344V127.453H70.6543V130.567H65.3687V133.68H70.3307V136.687H65.3687V140.23H70.6543V143.344H61.7012Z"
     fill="#3F2B4E"
     id="path903" />
  <path
     d="M79.6074 143.559C73.6746 143.559 72.1644 139.586 72.1644 135.935C72.1644 130.781 74.969 127.345 80.2546 127.345C81.3333 127.345 82.5199 127.453 83.4907 127.775L83.0592 131.103C82.1963 130.889 81.1176 130.674 80.1468 130.674C77.5579 130.674 76.1556 132.499 76.1556 135.398C76.1556 138.512 77.45 140.23 80.3625 140.23C81.2254 140.23 82.412 140.015 83.1671 139.693L83.5986 142.915C82.412 143.344 81.0097 143.559 79.6074 143.559Z"
     fill="#3F2B4E"
     id="path905" />
  <path
     d="M92.1202 130.567V143.344H88.4527V130.567H84.5694V127.453H95.8957V130.567H92.1202Z"
     fill="#3F2B4E"
     id="path907" />
  <path
     d="M97.1901 143.344V127.453H106.143V130.567H100.858V133.68H105.82V136.687H100.858V140.23H106.143V143.344H97.1901Z"
     fill="#3F2B4E"
     id="path909" />
  <path
     d="M113.263 143.451C111.537 143.451 110.027 143.344 108.516 143.344V127.56C109.811 127.453 111.752 127.453 113.91 127.453C118.764 127.453 121.892 129.493 121.892 135.184C122 140.552 118.44 143.451 113.263 143.451ZM113.802 130.459C113.155 130.459 112.723 130.459 112.292 130.459V140.23C112.615 140.23 113.047 140.338 113.694 140.338C116.175 140.338 118.117 138.834 118.117 135.398C118.009 132.392 117.038 130.459 113.802 130.459Z"
     fill="#3F2B4E"
     id="path911" />
  <path
     d="M11.0027 165.785V158.806H2.58888V165.785H1.18658V151.182H2.58888V157.625H11.0027V151.182H12.405V165.785H11.0027Z"
     fill="#3F2B4E"
     id="path913" />
  <path
     d="M15.3174 165.785V151.182H22.5447V152.256H16.7197V157.625H22.2211V158.699H16.7197V164.497H22.5447V165.678H15.3174V165.785Z"
     fill="#3F2B4E"
     id="path915" />
  <path
     d="M34.7339 165.785L33.4395 162.135H26.6437L25.2414 165.893H23.8391L29.3404 151.29H30.8506L36.3519 165.893H34.7339V165.785ZM30.6349 154.833C30.3113 154.081 30.2034 153.437 29.9877 152.686C29.7719 153.33 29.5562 154.081 29.3404 154.726L27.0752 160.953H33.008L30.6349 154.833Z"
     fill="#3F2B4E"
     id="path917" />
  <path
     d="M37.7542 165.785V151.182H39.1565V164.604H44.7657V165.785H37.7542Z"
     fill="#3F2B4E"
     id="path919" />
  <path
     d="M48.7569 152.363V165.785H47.4625V152.363H42.9319V151.182H53.3953V152.363H48.7569Z"
     fill="#3F2B4E"
     id="path921" />
  <path
     d="M64.6137 165.785V158.806H56.1998V165.785H54.7975V151.182H56.1998V157.625H64.6137V151.182H66.0159V165.785H64.6137Z"
     fill="#3F2B4E"
     id="path923" />
  <path
     d="M79.3917 166C74.969 166 72.8116 163.316 72.8116 158.806C72.8116 154.511 74.8612 151.075 79.8231 151.075C81.0097 151.075 82.1963 151.29 83.275 151.505L83.1671 152.793C81.8727 152.364 80.794 152.256 79.6074 152.256C75.832 152.256 74.3218 155.155 74.3218 158.591C74.3218 162.457 76.0477 164.711 79.8231 164.711C81.0097 164.711 82.5199 164.389 83.3828 163.853L83.4907 165.034C82.3041 165.678 80.9018 166 79.3917 166Z"
     fill="#3F2B4E"
     id="path925" />
  <path
     d="M85.3245 165.785V151.182H86.7268V165.785H85.3245Z"
     fill="#3F2B4E"
     id="path927" />
  <path
     d="M94.0619 152.363V165.785H92.6596V152.363H88.1291V151.182H98.5924V152.363H94.0619Z"
     fill="#3F2B4E"
     id="path929" />
  <path
     d="M99.9947 165.785V151.182H101.397V165.785H99.9947Z"
     fill="#3F2B4E"
     id="path931" />
  <path
     d="M104.309 165.785V151.182H111.537V152.256H105.712V157.625H111.213V158.699H105.712V164.497H111.537V165.678H104.309V165.785Z"
     fill="#3F2B4E"
     id="path933" />
  <path
     d="M116.283 166C115.204 166 114.126 165.893 113.37 165.678L113.478 164.282C114.341 164.604 115.42 164.819 116.499 164.819C118.44 164.819 120.166 164.067 120.166 161.92C120.166 158.269 113.263 159.558 113.263 155.048C113.263 152.793 115.096 151.075 118.225 151.075C119.195 151.075 119.95 151.182 120.813 151.29L120.706 152.578C119.843 152.364 118.98 152.149 118.009 152.149C115.744 152.149 114.557 153.222 114.557 154.833C114.557 158.376 121.569 157.088 121.569 161.598C121.569 164.175 119.519 166 116.283 166Z"
     fill="#3F2B4E"
     id="path935" />
  <path
     d="M 61.0011,0.0247912 36.0283,24.8033 60.946,49.7141 85.9428,24.852 Z"
     id="path937"
     inkscape:connector-curvature="0"
     style="fill:#ea4c84"
     sodipodi:nodetypes="ccccc" />
  <path
     d="M 25.6162,35.1969 0.6745,60.024 25.6729,84.8253 50.6985,60.022 Z"
     id="path939"
     inkscape:connector-curvature="0"
     style="fill:#00a2ad"
     sodipodi:nodetypes="ccccc" />
  <path
     d="M 50.6985,60.022 60.9461,49.7141 36.0283,24.8033 v 20.717362 z"
     id="path941"
     inkscape:connector-curvature="0"
     style="fill:#e83274"
     sodipodi:nodetypes="ccccc" />
  <path
     d="M25.6728 84.8253L0.755066 109.736V60.022L25.6728 84.8253Z"
     fill="#00928D"
     id="path943" />
  <path
     d="M 96.2592,35.1713 71.3015,60.022 96.3272,84.8253 121.245,60.022 Z"
     id="path945"
     inkscape:connector-curvature="0"
     style="fill:#1d71b8"
     sodipodi:nodetypes="ccccc" />
  <path
     d="M85.9717 24.8033L60.946 49.7141L71.3015 60.022L85.9717 45.4191V24.8033Z"
     fill="#D6306A"
     id="path947" />
  <path
     d="M96.3271 84.8253L121.245 60.022V109.736L96.3271 84.8253Z"
     fill="#184E96"
     id="path949" />
  <path
     d="M 60.9461,70.3299 36.0283,95.1332 60.946,120.044 85.9717,95.1332 Z"
     id="path951"
     inkscape:connector-curvature="0"
     style="fill:#ad2b51"
     sodipodi:nodetypes="ccccc" />
  <path
     d="M 50.6985,80.6378 V 60.022 L 25.6729,84.8253 36.0283,95.1332 Z"
     id="path953"
     inkscape:connector-curvature="0"
     style="fill:#008883"
     sodipodi:nodetypes="ccccc" />
  <path
     d="M 85.9717,95.1332 96.3272,84.8253 71.3015,60.022 v 20.6158 z"
     id="path955"
     inkscape:connector-curvature="0"
     style="fill:#1954a2"
     sodipodi:nodetypes="ccccc" />
  <path
     d="M60.9461 70.3299L71.3015 80.6378V60.022L60.9461 49.7141L50.6985 60.022V80.6378L60.9461 70.3299Z"
     fill="#3F2B4E"
     id="path957" />
  <path
     d="M 60.9461,120.044 H 36.0283 V 95.1332 Z"
     id="path959"
     inkscape:connector-curvature="0"
     style="fill:#8f1f3a"
     sodipodi:nodetypes="cccc" />
  <path
     d="M 60.946,120.044 85.9717,95.1332 v 24.9108 z"
     id="path961"
     inkscape:connector-curvature="0"
     style="fill:#811c34"
     sodipodi:nodetypes="cccc" />
  <path
     d="M96.3271 84.8253L85.9717 95.1332V120.044H121.245V109.736L96.3271 84.8253Z"
     fill="#3F2B4E"
     id="path963" />
  <path
     d="M25.6728 84.8253L36.0283 95.1332V120.044H0.755066V109.736L25.6728 84.8253Z"
     fill="#3F2B4E"
     id="path965" />
</svg>
